<svg  viewBox="0 0 26 26" fill="none" xmlns="http://www.w3.org/2000/svg" xmlns:xlink="http://www.w3.org/1999/xlink">
	<defs>
		<clipPath id="clip3_29">
			<rect id="material-symbols:call" rx="-0.500000" width="25.000000" height="25.000000" transform="translate(0.500000 0.500000)" fill="white" fill-opacity="0"/>
		</clipPath>
	</defs>
	<rect id="material-symbols:call" rx="-0.500000" width="25.000000" height="25.000000" transform="translate(0.500000 0.500000)" fill="#FFFFFF" fill-opacity="0"/>
	<g clip-path="url(#clip3_29)">
		<path id="Vector" d="M21.61 22.75C19.35 22.75 17.12 22.25 14.92 21.27C12.72 20.29 10.71 18.89 8.91 17.08C7.1 15.28 5.71 13.27 4.72 11.07C3.74 8.87 3.25 6.64 3.25 4.38C3.25 4.06 3.35 3.79 3.57 3.57C3.79 3.35 4.06 3.25 4.38 3.25L8.77 3.25C9.02 3.25 9.25 3.33 9.45 3.5C9.65 3.67 9.76 3.88 9.8 4.11L10.5 7.9C10.54 8.19 10.53 8.44 10.48 8.63C10.42 8.83 10.32 9 10.18 9.15L7.55 11.8C7.91 12.47 8.34 13.12 8.84 13.74C9.33 14.36 9.88 14.96 10.48 15.54C11.04 16.1 11.62 16.62 12.24 17.1C12.85 17.58 13.5 18.02 14.19 18.41L16.73 15.87C16.9 15.7 17.11 15.58 17.37 15.5C17.63 15.42 17.89 15.4 18.14 15.43L21.88 16.19C22.13 16.26 22.34 16.39 22.5 16.58C22.66 16.77 22.75 16.99 22.75 17.22L22.75 21.61C22.75 21.93 22.64 22.2 22.42 22.42C22.2 22.64 21.93 22.75 21.61 22.75Z" fill="#FFFFFF" fill-opacity="1.000000" fill-rule="nonzero"/>
	</g>
</svg>
