<svg viewBox="0 0 41.6667 41.5625" fill="none" xmlns="http://www.w3.org/2000/svg" xmlns:xlink="http://www.w3.org/1999/xlink">
	<path id="Vector" d="M41.66 20.83C41.66 9.33 32.33 0 20.83 0C9.33 0 0 9.33 0 20.83C0 30.91 7.16 39.31 16.66 41.25L16.66 27.08L12.5 27.08L12.5 20.83L16.66 20.83L16.66 15.62C16.66 11.6 19.93 8.33 23.95 8.33L29.16 8.33L29.16 14.58L25 14.58C23.85 14.58 22.91 15.52 22.91 16.66L22.91 20.83L29.16 20.83L29.16 27.08L22.91 27.08L22.91 41.56C33.43 40.52 41.66 31.64 41.66 20.83Z" fill="#FFFFFF" fill-opacity="1.000000" fill-rule="nonzero"/>
</svg>
