<svg  viewBox="0 0 41.6667 41.6667" fill="none" xmlns="http://www.w3.org/2000/svg" xmlns:xlink="http://www.w3.org/1999/xlink">
	<path id="Vector" d="M12.08 0L29.58 0C36.25 0 41.66 5.41 41.66 12.08L41.66 29.58C41.66 32.78 40.39 35.86 38.12 38.12C35.86 40.39 32.78 41.66 29.58 41.66L12.08 41.66C5.41 41.66 0 36.25 0 29.58L0 12.08C0 8.87 1.27 5.8 3.53 3.53C5.8 1.27 8.87 0 12.08 0ZM11.66 4.16C9.67 4.16 7.76 4.95 6.36 6.36C4.95 7.76 4.16 9.67 4.16 11.66L4.16 30C4.16 34.14 7.52 37.5 11.66 37.5L30 37.5C31.98 37.5 33.89 36.7 35.3 35.3C36.7 33.89 37.5 31.98 37.5 30L37.5 11.66C37.5 7.52 34.14 4.16 30 4.16L11.66 4.16ZM31.77 7.29C32.46 7.29 33.12 7.56 33.61 8.05C34.1 8.54 34.37 9.2 34.37 9.89C34.37 10.58 34.1 11.24 33.61 11.73C33.12 12.22 32.46 12.5 31.77 12.5C31.08 12.5 30.41 12.22 29.92 11.73C29.44 11.24 29.16 10.58 29.16 9.89C29.16 9.2 29.44 8.54 29.92 8.05C30.41 7.56 31.08 7.29 31.77 7.29ZM20.83 10.41C23.59 10.41 26.24 11.51 28.19 13.46C30.15 15.42 31.25 18.07 31.25 20.83C31.25 23.59 30.15 26.24 28.19 28.19C26.24 30.15 23.59 31.25 20.83 31.25C18.07 31.25 15.42 30.15 13.46 28.19C11.51 26.24 10.41 23.59 10.41 20.83C10.41 18.07 11.51 15.42 13.46 13.46C15.42 11.51 18.07 10.41 20.83 10.41ZM20.83 14.58C19.17 14.58 17.58 15.24 16.41 16.41C15.24 17.58 14.58 19.17 14.58 20.83C14.58 22.49 15.24 24.08 16.41 25.25C17.58 26.42 19.17 27.08 20.83 27.08C22.49 27.08 24.08 26.42 25.25 25.25C26.42 24.08 27.08 22.49 27.08 20.83C27.08 19.17 26.42 17.58 25.25 16.41C24.08 15.24 22.49 14.58 20.83 14.58Z" fill="#FFFFFF" fill-opacity="1.000000" fill-rule="nonzero"/>
</svg>
