<svg viewBox="0 0 34.375 43.75" fill="none" xmlns="http://www.w3.org/2000/svg" xmlns:xlink="http://www.w3.org/1999/xlink">
	<path id="Vector" d="M17.18 0C12.63 0 8.26 1.81 5.04 5.04C1.81 8.26 0 12.63 7.62e-6 17.18C-0.01 20.91 1.21 24.53 3.46 27.5C3.46 27.5 3.93 28.11 4 28.2L17.18 43.75L30.37 28.19C30.44 28.11 30.91 27.5 30.91 27.5L30.91 27.49C33.16 24.52 34.37 20.9 34.37 17.18C34.36 12.63 32.55 8.26 29.33 5.04C26.11 1.81 21.74 0 17.18 0ZM17.18 23.43C15.95 23.43 14.74 23.07 13.71 22.38C12.68 21.69 11.88 20.72 11.41 19.57C10.94 18.43 10.81 17.18 11.05 15.96C11.29 14.75 11.89 13.64 12.76 12.76C13.64 11.89 14.75 11.29 15.96 11.05C17.18 10.81 18.43 10.94 19.57 11.41C20.72 11.88 21.69 12.68 22.38 13.71C23.07 14.74 23.43 15.95 23.43 17.18C23.43 18.84 22.77 20.43 21.6 21.6C20.43 22.77 18.84 23.43 17.18 23.43Z" fill="#FFFFFF" fill-opacity="1.000000" fill-rule="nonzero"/>
</svg>
