<svg viewBox="0 0 41.6667 41.6667" fill="none" xmlns="http://www.w3.org/2000/svg" xmlns:xlink="http://www.w3.org/1999/xlink">
	<path id="Vector" d="M20.83 0C9.33 0 0 9.33 0 20.83C0 32.33 9.33 41.66 20.83 41.66C32.33 41.66 41.66 32.33 41.66 20.83C41.66 9.33 32.33 0 20.83 0ZM30.5 14.16C30.18 17.45 28.83 25.45 28.14 29.14C27.85 30.7 27.27 31.22 26.72 31.29C25.52 31.39 24.6 30.5 23.43 29.72C21.6 28.52 20.56 27.77 18.79 26.6C16.72 25.25 18.06 24.5 19.25 23.29C19.56 22.97 24.89 18.12 25 17.68C25.01 17.62 25.01 17.55 24.99 17.48C24.97 17.42 24.94 17.36 24.89 17.31C24.77 17.2 24.6 17.25 24.45 17.27C24.27 17.31 21.35 19.25 15.66 23.08C14.83 23.64 14.08 23.93 13.41 23.91C12.66 23.89 11.25 23.5 10.18 23.14C8.87 22.72 7.85 22.5 7.93 21.77C7.97 21.39 8.5 21.02 9.47 20.62C15.56 17.97 19.6 16.22 21.62 15.39C27.41 12.97 28.6 12.56 29.39 12.56C29.56 12.56 29.95 12.6 30.2 12.81C30.41 12.97 30.47 13.2 30.5 13.37C30.47 13.5 30.52 13.87 30.5 14.16Z" fill="#FFFFFF" fill-opacity="1.000000" fill-rule="nonzero"/>
</svg>
